<mxfile host="Electron" modified="2023-12-16T13:23:17.495Z" agent="Mozilla/5.0 (Windows NT 10.0; Win64; x64) AppleWebKit/537.36 (KHTML, like Gecko) draw.io/22.0.3 Chrome/114.0.5735.289 Electron/25.8.4 Safari/537.36" etag="qJAUFMQBTLF4lsh0dSqm" version="22.0.3" type="device">
  <diagram name="第 1 页" id="fRIzbz8ydf6Cp6PcLRsr">
    <mxGraphModel dx="2375" dy="-18" grid="1" gridSize="10" guides="1" tooltips="1" connect="1" arrows="1" fold="1" page="1" pageScale="1" pageWidth="1169" pageHeight="827" math="0" shadow="0">
      <root>
        <mxCell id="0" />
        <mxCell id="1" parent="0" />
        <mxCell id="2_ZPJWWun6X5m0J34vva-2" value="" style="shape=image;aspect=fixed;image=data:image/svg+xml,PHN2ZyB3aWR0aD0iMzczMyIgaGVpZ2h0PSIyMzkzIiB4bWxucz0iaHR0cDovL3d3dy53My5vcmcvMjAwMC9zdmciIHhtbG5zOnhsaW5rPSJodHRwOi8vd3d3LnczLm9yZy8xOTk5L3hsaW5rIiB4bWw6c3BhY2U9InByZXNlcnZlIiBvdmVyZmxvdz0iaGlkZGVuIj48ZGVmcz48Y2xpcFBhdGggaWQ9ImNsaXAwIj48cmVjdCB4PSIxMjAxIiB5PSIzMzEiIHdpZHRoPSIzNzMzIiBoZWlnaHQ9IjIzOTMiLz48L2NsaXBQYXRoPjwvZGVmcz48ZyBjbGlwLXBhdGg9InVybCgjY2xpcDApIiB0cmFuc2Zvcm09InRyYW5zbGF0ZSgtMTIwMSAtMzMxKSI+PHJlY3QgeD0iMTIwMiIgeT0iMzMyIiB3aWR0aD0iMzczMiIgaGVpZ2h0PSIyMzkyIiBmaWxsPSIjRkZGRkZGIi8+PGc+PHBhdGggZD0iTTE0NDMuNSAyNjQ1LjUgNDg4My41IDI2NDUuNU0xNDQzLjUgMjM5Ni41OCA0ODgzLjUgMjM5Ni41OE0xNDQzLjUgMjE0OC41NyA0ODgzLjUgMjE0OC41N00xNDQzLjUgMTkwMC41NiA0ODgzLjUgMTkwMC41Nk0xNDQzLjUgMTY1MS41NSA0ODgzLjUgMTY1MS41NU0xNDQzLjUgMTQwMy41NSA0ODgzLjUgMTQwMy41NU0xNDQzLjUgMTE1NS41NCA0ODgzLjUgMTE1NS41NE0xNDQzLjUgOTA3LjUzIDQ4ODMuNSA5MDcuNTNNMTQ0My41IDY1OC41MjIgNDg4My41IDY1OC41MjJNMTQ0My41IDQxMC41IDQ4ODMuNSA0MTAuNSIgc3Ryb2tlPSIjRDlEOUQ5IiBzdHJva2Utd2lkdGg9IjMuNDM3NSIgc3Ryb2tlLWxpbmVqb2luPSJyb3VuZCIgc3Ryb2tlLW1pdGVybGltaXQ9IjEwIiBmaWxsPSJub25lIi8+PC9nPjxnPjxwYXRoIGQ9Ik0xNDUxLjUgMTk3NS41NiAxNDY2LjU1IDIwNDkuNSAxNDgxLjU1IDEyMzEuNTQgMTQ5Ny41NSAxMjA2LjU0IDE1MTIuNTUgNzQyLjUyNSAxNTI3LjU1IDczOC41MjQgMTU0My41NSA2ODcuNTIzIDE1NTguNTUgMTY5OC41NiAxNTczLjU1IDE3NjAuNTYgMTU4OS41NSAxMTM3LjU0IDE2MDQuNTUgMTIwMS41NCAxNjE5LjU1IDc2NS41MjUgMTYzNS41NSA3MzMuNTI0IDE2NTAuNTUgNjM2LjUyMSAxNjY2LjU1IDE0MjAuNTUgMTY4MS41NiAxNDQ4LjU1IDE2OTYuNTYgMTA1MC41MyAxNzEyLjU2IDEwMjcuNTMgMTcyNy41NiA2OTAuNTIzIDE3NDIuNTYgNjc2LjUyMiAxNzU4LjU2IDYzMi41IDE3NzMuNTYgMTIyMS41NCAxNzg4LjU2IDEyMzQuNTQgMTgwNC41NiAxMDM3LjUzIDE4MTkuNTYgMTAzOC41MyAxODM0LjU2IDY1Mi41MjIgMTg1MC41NiA2NDMuNTIxIDE4NjUuNTYgNjU0LjUyMiAxODgxLjU2IDEyMTIuNTQgMTg5Ni41NiAxMjE3LjU0IDE5MTEuNTYgMTAyOS41MyAxOTI3LjU2IDEwMzAuNTMgMTk0Mi41NiA2NDcuNTIxIDE5NTcuNTYgNjM1LjUyMSAxOTczLjU2IDY1Mi41MjIgMTk4OC41NyAxMTkyLjU0IDIwMDMuNTcgMTE5OS41NCAyMDE5LjU3IDEwMzkuNTMgMjAzNC41NyAxMDQ2LjUzIDIwNDkuNTcgNjUyLjUyMiAyMDY1LjU3IDYzNS41MjEgMjA4MC41NyA2NjIuNTIyIDIwOTYuNTcgMTE4My41NCAyMTExLjU3IDExODAuNTQgMjEyNi41NyAxMDQ5LjUzIDIxNDIuNTcgMTA2Mi41NCAyMTU3LjU3IDY1OC41MjIgMjE3Mi41NyA2MzkuNTIxIDIxODguNTcgNjY1LjUyMiAyMjAzLjU3IDExODMuNTQgMjIxOC41NyAxMTc5LjU0IDIyMzQuNTcgMTA2My41NCAyMjQ5LjU3IDEwNjMuNTQgMjI2NC41NyA2NjQuNTIyIDIyODAuNTcgNjQzLjUyMSAyMjk1LjU4IDY3MC41MjIgMjMxMC41OCAxMTc0LjU0IDIzMjYuNTggMTE2Ny41NCAyMzQxLjU4IDEwNzEuNTQgMjM1Ny41OCAxMDY4LjU0IDIzNzIuNTggNjY3LjUyMiAyMzg3LjU4IDY0NC41MjEgMjQwMy41OCA2NjkuNTIyIDI0MTguNTggMTE1Ni41NCAyNDMzLjU4IDExNTQuNTQgMjQ0OS41OCAxMDc1LjU0IDI0NjQuNTggMTA2Ny41NCAyNDc5LjU4IDY2OS41MjIgMjQ5NS41OCA2NDYuNTIxIDI1MTAuNTggNjY4LjUyMiAyNTI1LjU4IDExODAuNTQgMjU0MS41OCAxMTczLjU0IDI1NTYuNTggMTA3NC41NCAyNTcyLjU4IDEwOTguNTQgMjU4Ny41OCA2NzIuNTIyIDI2MDIuNTkgNjQ3LjUyMSAyNjE4LjU5IDY3My41MjIgMjYzMy41OSAxMTkwLjU0IDI2NDguNTkgMTE3NS41NCAyNjY0LjU5IDEwODkuNTQgMjY3OS41OSAxMTExLjU0IDI2OTQuNTkgNjc3LjUyMiAyNzEwLjU5IDY1My41MjIgMjcyNS41OSA2NjcuNTIyIDI3NDAuNTkgMTE1Ny41NCAyNzU2LjU5IDExNTQuNTQgMjc3MS41OSAxMDc0LjU0IDI3ODcuNTkgMTA3OC41NCAyODAyLjU5IDY3NS41MjIgMjgxNy41OSA2NTQuNTIyIDI4MzMuNTkgNjY4LjUyMiAyODQ4LjU5IDExNDkuNTQgMjg2My41OSAxMTM1LjU0IDI4NzkuNTkgMTA1MS41MyAyODk0LjYgMTA4Ni41NCAyOTA5LjYgNjc1LjUyMiAyOTI1LjYgNjUxLjUyMiAyOTQwLjYgNjU4LjUyMiAyOTU1LjYgMTE2MC41NCAyOTcxLjYgMTE1MC41NCAyOTg2LjYgMTA1OC41MyAzMDAxLjYgMTA4Ni41NCAzMDE3LjYgNjc3LjUyMiAzMDMyLjYgNjU1LjUyMiAzMDQ4LjYgNjU4LjUyMiAzMDYzLjYgMTE0NC41NCAzMDc4LjYgMTEzNy41NCAzMDk0LjYgMTA0NS41MyAzMTA5LjYgMTA2Ny41NCAzMTI0LjYgNjcxLjUyMiAzMTQwLjYgNjQ3LjUyMSAzMTU1LjYgNjQ2LjUyMSAzMTcwLjYgMTE0Ni41NCAzMTg2LjYgMTE0MC41NCAzMjAxLjYxIDEwMjcuNTMgMzIxNi42MSAxMDQ0LjUzIDMyMzIuNjEgNjc3LjUyMiAzMjQ3LjYxIDY1Ni41MjIgMzI2My42MSA2NDIuNTIxIDMyNzguNjEgMTExNy41NCAzMjkzLjYxIDExMTQuNTQgMzMwOS42MSAxMDE1LjUzIDMzMjQuNjEgMTAyMy41MyAzMzM5LjYxIDY3Ny41MjIgMzM1NS42MSA2NTguNTIyIDMzNzAuNjEgNjQ2LjUyMSAzMzg1LjYxIDEwOTcuNTQgMzQwMS42MSAxMDkxLjU0IDM0MTYuNjEgMTAxMi41MyAzNDMxLjYxIDEwMDYuNTMgMzQ0Ny42MSA2NzMuNTIyIDM0NjIuNjEgNjU1LjUyMiAzNDc4LjYxIDY0My41MjEgMzQ5My42MSAxMTA5LjU0IDM1MDguNjIgMTEwOS41NCAzNTI0LjYyIDEwMTguNTMgMzUzOS42MiAxMDA2LjUzIDM1NTQuNjIgNjY5LjUyMiAzNTcwLjYyIDY1My41MjIgMzU4NS42MiA2NDAuNTIxIDM2MDAuNjIgMTEyNC41NCAzNjE2LjYyIDExMjAuNTQgMzYzMS42MiAxMDEzLjUzIDM2NDYuNjIgOTkzLjUzMyAzNjYyLjYyIDY2OS41MjIgMzY3Ny42MiA2NTUuNTIyIDM2OTIuNjIgNjM2LjUyMSAzNzA4LjYyIDExMTUuNTQgMzcyMy42MiAxMTEzLjU0IDM3MzkuNjIgMTAxNy41MyAzNzU0LjYyIDk4NC41MzIgMzc2OS42MiA2NjguNTIyIDM3ODUuNjIgNjU1LjUyMiAzODAwLjYyIDYzOC41MjEgMzgxNS42MyAxMTA5LjU0IDM4MzEuNjMgMTEwNC41NCAzODQ2LjYzIDEwMDMuNTMgMzg2MS42MyA5ODMuNTMyIDM4NzcuNjMgNjY2LjUyMiAzODkyLjYzIDY1NC41MjIgMzkwNy42MyA2NDEuNTIxIDM5MjMuNjMgMTA4MC41NCAzOTM4LjYzIDEwNzguNTQgMzk1NC42MyAxMDAzLjUzIDM5NjkuNjMgOTg3LjUzMyAzOTg0LjYzIDY2MS41MjIgNDAwMC42MyA2NTAuNTIyIDQwMTUuNjMgNjQ1LjUyMSA0MDMwLjYzIDExMzIuNTQgNDA0Ni42MyAxMTI0LjU0IDQwNjEuNjMgMTAwNy41MyA0MDc2LjYzIDk4My41MzIgNDA5Mi42MyA2NTkuNTIyIDQxMDcuNjMgNjQ4LjUyMSA0MTIyLjY0IDY0OC41MjEgNDEzOC42NCAxMDgzLjU0IDQxNTMuNjQgMTA3NS41NCA0MTY5LjY0IDEwMDAuNTMgNDE4NC42NCA5OTUuNTMzIDQxOTkuNjQgNjU1LjUyMiA0MjE1LjY0IDY0NS41MjEgNDIzMC42NCA2NTAuNTIyIDQyNDUuNjQgMTExMS41NCA0MjYxLjY0IDExMDIuNTQgNDI3Ni42NCAxMDA3LjUzIDQyOTEuNjQgOTk0LjUzMyA0MzA3LjY0IDY1Mi41MjIgNDMyMi42NCA2NDEuNTIxIDQzMzcuNjQgNjQ5LjUyMSA0MzUzLjY0IDEwNTAuNTMgNDM2OC42NCAxMDQzLjUzIDQzODMuNjQgOTkxLjUzMyA0Mzk5LjY0IDk5Mi41MzMgNDQxNC42NSA2NDguNTIxIDQ0MzAuNjUgNjM3LjUyMSA0NDQ1LjY1IDY0OC41MjEgNDQ2MC42NSAxMDc0LjU0IDQ0NzYuNjUgMTA2NC41NCA0NDkxLjY1IDk5NC41MzMgNDUwNi42NSAxMDAwLjUzIDQ1MjIuNjUgNjQ2LjUyMSA0NTM3LjY1IDYzNS41MjEgNDU1Mi42NSA2NDEuNTIxIDQ1NjguNjUgMTEwMC41NCA0NTgzLjY1IDEwOTIuNTQgNDU5OC42NSAxMDAxLjUzIDQ2MTQuNjUgOTk1LjUzMyA0NjI5LjY1IDY0NC41MjEgNDY0NS42NSA2MzYuNTIxIDQ2NjAuNjUgNjM1LjUyMSA0Njc1LjY1IDEwNjEuNTQgNDY5MS42NSAxMDU1LjUzIDQ3MDYuNjUgOTg5LjUzMyA0NzIxLjY2IDk5MS41MzMgNDczNy42NiA2NDUuNTIxIDQ3NTIuNjYgNjM4LjUyMSA0NzY3LjY2IDYzMi41IDQ3ODMuNjYgMTEwNi41NCA0Nzk4LjY2IDExMDIuNTQgNDgxMy42NiAxMDA0LjUzIDQ4MjkuNjYgMTAxNi41MyA0ODQ0LjY2IDY1MS41MjIgNDg2MC42NiA2NDQuNTIxIDQ4NzUuNSA2NDEuNTIxIiBzdHJva2U9IiNGMUE2NjEiIHN0cm9rZS13aWR0aD0iOS4xNjY2NyIgc3Ryb2tlLWxpbmVjYXA9InJvdW5kIiBzdHJva2UtbGluZWpvaW49InJvdW5kIiBzdHJva2UtbWl0ZXJsaW1pdD0iMTAiIHN0cm9rZS1vcGFjaXR5PSIwLjgiIGZpbGw9Im5vbmUiLz48L2c+PGc+PHBhdGggZD0iTTE0NTEuNSAxMTE5LjU0IDE0NjYuNTUgMTExMi41NCAxNDgxLjU1IDEwNzAuNTQgMTQ5Ny41NSAxMDc0LjU0IDE1MTIuNTUgNjIxLjUyMSAxNTI3LjU1IDYwOC41MiAxNTQzLjU1IDEwOTkuNTQgMTU1OC41NSAxMTEyLjU0IDE1NzMuNTUgMTA2NC41NCAxNTg5LjU1IDEwNzQuNTQgMTYwNC41NSA2MjEuNTIxIDE2MTkuNTUgNjI0LjUyMSAxNjM1LjU1IDExMTkuNTQgMTY1MC41NSAxMTQxLjUgMTY2Ni41NSAxMDc3LjU0IDE2ODEuNTYgMTA4Ni41NCAxNjk2LjU2IDYyMS41MjEgMTcxMi41NiA2MTQuNTIgMTcyNy41NiAxMDkzLjU0IDE3NDIuNTYgMTEwNi41NCAxNzU4LjU2IDEwODMuNTQgMTc3My41NiAxMDcwLjU0IDE3ODguNTYgNjIxLjUyMSAxODA0LjU2IDYxMS41MiAxODE5LjU2IDEwOTYuNTQgMTgzNC41NiAxMDk2LjU0IDE4NTAuNTYgMTA2Ny41NCAxODY1LjU2IDEwNjEuNTMgMTg4MS41NiA2MTguNTIgMTg5Ni41NiA2MjEuNTIxIDE5MTEuNTYgMTEwOS41NCAxOTI3LjU2IDExMDYuNTQgMTk0Mi41NiAxMDcwLjU0IDE5NTcuNTYgMTA2NC41NCAxOTczLjU2IDYxNC41MiAxOTg4LjU3IDYyMS41MjEgMjAwMy41NyAxMTEyLjU0IDIwMTkuNTcgMTExOS41NCAyMDM0LjU3IDEwNDguNTMgMjA0OS41NyAxMDQ4LjUzIDIwNjUuNTcgNjExLjUyIDIwODAuNTcgNjMxLjUyMSAyMDk2LjU3IDExMzIuNTQgMjExMS41NyAxMTMyLjU0IDIxMjYuNTcgMTAzNS41MyAyMTQyLjU3IDEwMjIuNTMgMjE1Ny41NyA2MjQuNTIxIDIxNzIuNTcgNjE0LjUyIDIxODguNTcgMTExNi41NCAyMjAzLjU3IDExMTIuNTQgMjIxOC41NyAxMDQ0LjUzIDIyMzQuNTcgMTAyNS41MyAyMjQ5LjU3IDYyNC41MjEgMjI2NC41NyA1OTguNTIgMjI4MC41NyAxMDgwLjU0IDIyOTUuNTggMTA4My41NCAyMzEwLjU4IDEwMjIuNTMgMjMyNi41OCA5OTMuNTMzIDIzNDEuNTggNjMxLjUyMSAyMzU3LjU4IDU4NS41IDIzNzIuNTggMTA3Ny41NCAyMzg3LjU4IDEwNzcuNTQgMjQwMy41OCAxMDQxLjUzIDI0MTguNTggMTAyNS41MyAyNDMzLjU4IDYzNy41MjEgMjQ0OS41OCA1OTIuNTIgMjQ2NC41OCAxMDc0LjU0IDI0NzkuNTggMTA2Ny41NCAyNDk1LjU4IDEwNDguNTMgMjUxMC41OCAxMDIyLjUzIDI1MjUuNTggNjI3LjUyMSAyNTQxLjUgNzkyLjUyNiIgc3Ryb2tlPSIjQjQ2MDYwIiBzdHJva2Utd2lkdGg9IjkuMTY2NjciIHN0cm9rZS1saW5lY2FwPSJyb3VuZCIgc3Ryb2tlLWxpbmVqb2luPSJyb3VuZCIgc3Ryb2tlLW1pdGVybGltaXQ9IjEwIiBmaWxsPSJub25lIi8+PC9nPjxnPjx0ZXh0IGZpbGw9IiM1OTU5NTkiIGZvbnQtZmFtaWx5PSJUaW1lcyBOZXcgUm9tYW4sVGltZXMgTmV3IFJvbWFuX01TRm9udFNlcnZpY2Usc2Fucy1zZXJpZiIgZm9udC13ZWlnaHQ9IjQwMCIgZm9udC1zaXplPSIxMDEiIHRyYW5zZm9ybT0ibWF0cml4KDEgMCAwIDEgMTMwNy4yMyAyNjc3KSI+MDwvdGV4dD48L2c+PGc+PHRleHQgZmlsbD0iIzU5NTk1OSIgZm9udC1mYW1pbHk9IlRpbWVzIE5ldyBSb21hbixUaW1lcyBOZXcgUm9tYW5fTVNGb250U2VydmljZSxzYW5zLXNlcmlmIiBmb250LXdlaWdodD0iNDAwIiBmb250LXNpemU9IjEwMSIgdHJhbnNmb3JtPSJtYXRyaXgoMSAwIDAgMSAxMjMxLjYxIDI0MjgpIj4wLjE8L3RleHQ+PC9nPjxnPjx0ZXh0IGZpbGw9IiM1OTU5NTkiIGZvbnQtZmFtaWx5PSJUaW1lcyBOZXcgUm9tYW4sVGltZXMgTmV3IFJvbWFuX01TRm9udFNlcnZpY2Usc2Fucy1zZXJpZiIgZm9udC13ZWlnaHQ9IjQwMCIgZm9udC1zaXplPSIxMDEiIHRyYW5zZm9ybT0ibWF0cml4KDEgMCAwIDEgMTIzMS42MSAyMTgwKSI+MC4yPC90ZXh0PjwvZz48Zz48dGV4dCBmaWxsPSIjNTk1OTU5IiBmb250LWZhbWlseT0iVGltZXMgTmV3IFJvbWFuLFRpbWVzIE5ldyBSb21hbl9NU0ZvbnRTZXJ2aWNlLHNhbnMtc2VyaWYiIGZvbnQtd2VpZ2h0PSI0MDAiIGZvbnQtc2l6ZT0iMTAxIiB0cmFuc2Zvcm09Im1hdHJpeCgxIDAgMCAxIDEyMzEuNjEgMTkzMikiPjAuMzwvdGV4dD48L2c+PGc+PHRleHQgZmlsbD0iIzU5NTk1OSIgZm9udC1mYW1pbHk9IlRpbWVzIE5ldyBSb21hbixUaW1lcyBOZXcgUm9tYW5fTVNGb250U2VydmljZSxzYW5zLXNlcmlmIiBmb250LXdlaWdodD0iNDAwIiBmb250LXNpemU9IjEwMSIgdHJhbnNmb3JtPSJtYXRyaXgoMSAwIDAgMSAxMjMxLjYxIDE2ODMpIj4wLjQ8L3RleHQ+PC9nPjxnPjx0ZXh0IGZpbGw9IiM1OTU5NTkiIGZvbnQtZmFtaWx5PSJUaW1lcyBOZXcgUm9tYW4sVGltZXMgTmV3IFJvbWFuX01TRm9udFNlcnZpY2Usc2Fucy1zZXJpZiIgZm9udC13ZWlnaHQ9IjQwMCIgZm9udC1zaXplPSIxMDEiIHRyYW5zZm9ybT0ibWF0cml4KDEgMCAwIDEgMTIzMS42MSAxNDM1KSI+MC41PC90ZXh0PjwvZz48Zz48dGV4dCBmaWxsPSIjNTk1OTU5IiBmb250LWZhbWlseT0iVGltZXMgTmV3IFJvbWFuLFRpbWVzIE5ldyBSb21hbl9NU0ZvbnRTZXJ2aWNlLHNhbnMtc2VyaWYiIGZvbnQtd2VpZ2h0PSI0MDAiIGZvbnQtc2l6ZT0iMTAxIiB0cmFuc2Zvcm09Im1hdHJpeCgxIDAgMCAxIDEyMzEuNjEgMTE4NykiPjAuNjwvdGV4dD48L2c+PGc+PHRleHQgZmlsbD0iIzU5NTk1OSIgZm9udC1mYW1pbHk9IlRpbWVzIE5ldyBSb21hbixUaW1lcyBOZXcgUm9tYW5fTVNGb250U2VydmljZSxzYW5zLXNlcmlmIiBmb250LXdlaWdodD0iNDAwIiBmb250LXNpemU9IjEwMSIgdHJhbnNmb3JtPSJtYXRyaXgoMSAwIDAgMSAxMjMxLjYxIDkzOSkiPjAuNzwvdGV4dD48L2c+PGc+PHRleHQgZmlsbD0iIzU5NTk1OSIgZm9udC1mYW1pbHk9IlRpbWVzIE5ldyBSb21hbixUaW1lcyBOZXcgUm9tYW5fTVNGb250U2VydmljZSxzYW5zLXNlcmlmIiBmb250LXdlaWdodD0iNDAwIiBmb250LXNpemU9IjEwMSIgdHJhbnNmb3JtPSJtYXRyaXgoMSAwIDAgMSAxMjMxLjYxIDY5MCkiPjAuODwvdGV4dD48L2c+PGc+PHRleHQgZmlsbD0iIzU5NTk1OSIgZm9udC1mYW1pbHk9IlRpbWVzIE5ldyBSb21hbixUaW1lcyBOZXcgUm9tYW5fTVNGb250U2VydmljZSxzYW5zLXNlcmlmIiBmb250LXdlaWdodD0iNDAwIiBmb250LXNpemU9IjEwMSIgdHJhbnNmb3JtPSJtYXRyaXgoMSAwIDAgMSAxMjMxLjYxIDQ0MikiPjAuOTwvdGV4dD48L2c+PGc+PHBhdGggZD0iTTQyMDAuNSAxODI3LjUgNDI4OC41IDE4MjcuNSIgc3Ryb2tlPSIjRjFBNjYxIiBzdHJva2Utd2lkdGg9IjkuMTY2NjciIHN0cm9rZS1saW5lY2FwPSJyb3VuZCIgc3Ryb2tlLWxpbmVqb2luPSJyb3VuZCIgc3Ryb2tlLW1pdGVybGltaXQ9IjEwIiBzdHJva2Utb3BhY2l0eT0iMC44IiBmaWxsPSJub25lIiBmaWxsLXJ1bGU9ImV2ZW5vZGQiLz48L2c+PGc+PHRleHQgZmlsbD0iIzU5NTk1OSIgZm9udC1mYW1pbHk9IlRpbWVzIE5ldyBSb21hbixUaW1lcyBOZXcgUm9tYW5fTVNGb250U2VydmljZSxzYW5zLXNlcmlmIiBmb250LXdlaWdodD0iNDAwIiBmb250LXNpemU9IjEwMSIgdHJhbnNmb3JtPSJtYXRyaXgoMSAwIDAgMSA0Mjk3LjMzIDE4NTkpIj5MTGFNQTItN0I8L3RleHQ+PC9nPjxnPjxwYXRoIGQ9Ik00MjAwLjUgMTk2NS41IDQyODguNSAxOTY1LjUiIHN0cm9rZT0iI0I0NjA2MCIgc3Ryb2tlLXdpZHRoPSI5LjE2NjY3IiBzdHJva2UtbGluZWNhcD0icm91bmQiIHN0cm9rZS1saW5lam9pbj0icm91bmQiIHN0cm9rZS1taXRlcmxpbWl0PSIxMCIgZmlsbD0ibm9uZSIgZmlsbC1ydWxlPSJldmVub2RkIi8+PC9nPjxnPjx0ZXh0IGZpbGw9IiM1OTU5NTkiIGZvbnQtZmFtaWx5PSJUaW1lcyBOZXcgUm9tYW4sVGltZXMgTmV3IFJvbWFuX01TRm9udFNlcnZpY2Usc2Fucy1zZXJpZiIgZm9udC13ZWlnaHQ9IjQwMCIgZm9udC1zaXplPSIxMDEiIHRyYW5zZm9ybT0ibWF0cml4KDEgMCAwIDEgNDI5Ny4zMyAxOTk3KSI+QkVSVDwvdGV4dD48L2c+PC9nPjwvc3ZnPg==;" parent="1" vertex="1">
          <mxGeometry x="-1005" y="930" width="829.91" height="532" as="geometry" />
        </mxCell>
        <mxCell id="hRcaLzNyc2iuVKOD0njU-3" value="" style="endArrow=classic;html=1;rounded=0;strokeWidth=4;strokeColor=#999999;" parent="1" edge="1">
          <mxGeometry width="50" height="50" relative="1" as="geometry">
            <mxPoint x="-862" y="1390" as="sourcePoint" />
            <mxPoint x="-279.49" y="1390" as="targetPoint" />
            <Array as="points" />
          </mxGeometry>
        </mxCell>
        <mxCell id="hRcaLzNyc2iuVKOD0njU-4" value="&lt;font color=&quot;#4d4d4d&quot; style=&quot;font-size: 24px;&quot; face=&quot;Times New Roman&quot;&gt;Deeper Layers&lt;/font&gt;" style="edgeLabel;html=1;align=center;verticalAlign=middle;resizable=0;points=[];" parent="hRcaLzNyc2iuVKOD0njU-3" vertex="1" connectable="0">
          <mxGeometry x="0.1648" y="5" relative="1" as="geometry">
            <mxPoint x="-52" y="25" as="offset" />
          </mxGeometry>
        </mxCell>
        <mxCell id="hRcaLzNyc2iuVKOD0njU-6" value="&lt;font size=&quot;1&quot; color=&quot;#4d4d4d&quot; style=&quot;&quot; face=&quot;Times New Roman&quot;&gt;&lt;b style=&quot;font-size: 18px;&quot;&gt;Attention Block&lt;/b&gt;&lt;/font&gt;" style="text;html=1;strokeColor=none;fillColor=none;align=center;verticalAlign=middle;whiteSpace=wrap;rounded=0;" parent="1" vertex="1">
          <mxGeometry x="-780" y="1144" width="136" height="30" as="geometry" />
        </mxCell>
        <mxCell id="hRcaLzNyc2iuVKOD0njU-7" value="&lt;font size=&quot;1&quot; color=&quot;#4d4d4d&quot; style=&quot;&quot; face=&quot;Times New Roman&quot;&gt;&lt;b style=&quot;font-size: 18px;&quot;&gt;MLP Block&lt;/b&gt;&lt;/font&gt;" style="text;html=1;strokeColor=none;fillColor=none;align=center;verticalAlign=middle;whiteSpace=wrap;rounded=0;" parent="1" vertex="1">
          <mxGeometry x="-510" y="950" width="110" height="30" as="geometry" />
        </mxCell>
        <mxCell id="hRcaLzNyc2iuVKOD0njU-9" value="" style="shape=flexArrow;endArrow=classic;html=1;rounded=0;width=6.206896551724138;endSize=4.0344827586206895;endWidth=9.512485136741974;strokeColor=#999999;strokeWidth=2;" parent="1" edge="1">
          <mxGeometry width="50" height="50" relative="1" as="geometry">
            <mxPoint x="-647" y="1148" as="sourcePoint" />
            <mxPoint x="-617" y="1118" as="targetPoint" />
          </mxGeometry>
        </mxCell>
        <mxCell id="hRcaLzNyc2iuVKOD0njU-10" value="" style="shape=flexArrow;endArrow=classic;html=1;rounded=0;width=6.206896551724138;endSize=4.0344827586206895;endWidth=9.512485136741974;entryX=0.583;entryY=0.122;entryDx=0;entryDy=0;entryPerimeter=0;strokeColor=#999999;strokeWidth=2;" parent="1" edge="1">
          <mxGeometry width="50" height="50" relative="1" as="geometry">
            <mxPoint x="-505.27" y="976" as="sourcePoint" />
            <mxPoint x="-545.00449" y="996.2" as="targetPoint" />
          </mxGeometry>
        </mxCell>
      </root>
    </mxGraphModel>
  </diagram>
</mxfile>
